<?xml version="1.0" encoding="utf-8"?>
<!-- Generator: Adobe Illustrator 24.0.3, SVG Export Plug-In . SVG Version: 6.00 Build 0)  -->
<!DOCTYPE svg PUBLIC "-//W3C//DTD SVG 1.1//EN" "http://www.w3.org/Graphics/SVG/1.1/DTD/svg11.dtd" [
	<!ENTITY ns_extend "http://ns.adobe.com/Extensibility/1.0/">
	<!ENTITY ns_ai "http://ns.adobe.com/AdobeIllustrator/10.0/">
	<!ENTITY ns_graphs "http://ns.adobe.com/Graphs/1.0/">
	<!ENTITY ns_vars "http://ns.adobe.com/Variables/1.0/">
	<!ENTITY ns_imrep "http://ns.adobe.com/ImageReplacement/1.0/">
	<!ENTITY ns_sfw "http://ns.adobe.com/SaveForWeb/1.0/">
	<!ENTITY ns_custom "http://ns.adobe.com/GenericCustomNamespace/1.0/">
	<!ENTITY ns_adobe_xpath "http://ns.adobe.com/XPath/1.0/">
]>
<svg version="1.1" id="Layer_1" xmlns:x="&ns_extend;" xmlns:i="&ns_ai;" xmlns:graph="&ns_graphs;"
	 xmlns="http://www.w3.org/2000/svg" xmlns:xlink="http://www.w3.org/1999/xlink" x="0px" y="0px" viewBox="0 0 45.9 41.2"
	 style="enable-background:new 0 0 45.9 41.2;" xml:space="preserve">
<style type="text/css">
	.st0{opacity:0.4021;fill:url(#SVGID_1_);enable-background:new    ;}
	.st1{opacity:0.4021;fill:url(#SVGID_2_);enable-background:new    ;}
	.st2{opacity:0.4021;fill:url(#SVGID_3_);enable-background:new    ;}
	.st3{fill:#CC0000;stroke:#9F0000;stroke-width:1;stroke-miterlimit:6.2668;}
	.st4{fill:url(#SVGID_4_);}
	.st5{opacity:0.5;fill:none;stroke:url(#SVGID_5_);stroke-width:1;stroke-miterlimit:6.2668;enable-background:new    ;}
</style>
<metadata>
	<sfw  xmlns="&ns_sfw;">
		<slices></slices>
		<sliceSourceBounds  bottomLeftOrigin="true" height="41.2" width="45.9" x="0.3" y="1.8"></sliceSourceBounds>
	</sfw>
</metadata>
<g transform="matrix(.02262 0 0 .02087 43.383 39.351)">
	
		<linearGradient id="SVGID_1_" gradientUnits="userSpaceOnUse" x1="1215655.125" y1="-799538.875" x2="1215655.125" y2="-800017.25" gradientTransform="matrix(2.262000e-02 0 0 -2.087000e-02 -28400.8242 -17076.6641)">
		<stop  offset="0" style="stop-color:#000000;stop-opacity:0"/>
		<stop  offset="0.5" style="stop-color:#000000"/>
		<stop  offset="1" style="stop-color:#000000;stop-opacity:0"/>
	</linearGradient>
	<path class="st0" d="M-1572.5-390.3h1339.6V88.1h-1339.6V-390.3z"/>
	
		<radialGradient id="SVGID_2_" cx="459280.5625" cy="-424301.4375" r="117.14" gradientTransform="matrix(6.275693e-02 0 0 -4.110764e-02 -29047.3594 -17595.9531)" gradientUnits="userSpaceOnUse">
		<stop  offset="0" style="stop-color:#000000"/>
		<stop  offset="1" style="stop-color:#000000;stop-opacity:0"/>
	</radialGradient>
	<path class="st1" d="M-232.8-390.3V88.1C-90,89,112.6-19.1,112.6-151.1S-46.9-390.3-232.8-390.3z"/>
	
		<radialGradient id="SVGID_3_" cx="-467766.125" cy="-424301.4375" r="117.14" gradientTransform="matrix(-6.275693e-02 0 0 -4.110764e-02 -30936.4922 -17595.9531)" gradientUnits="userSpaceOnUse">
		<stop  offset="0" style="stop-color:#000000"/>
		<stop  offset="1" style="stop-color:#000000;stop-opacity:0"/>
	</radialGradient>
	<path class="st2" d="M-1572.5-390.3V88.1c-142.9,0.9-345.4-107.2-345.4-239.2S-1758.5-390.3-1572.5-390.3z"/>
</g>
<path class="st3" d="M43,33.6L26.1,1.9c-0.5-0.9-1.4-1.4-2.3-1.4c-1,0-1.9,0.6-2.4,1.5L4.6,33.7c-0.4,0.8-0.4,1.9,0.1,2.6
	c0.5,0.8,1.3,1.2,2.2,1.2h33.7c1,0,1.9-0.5,2.3-1.3C43.4,35.5,43.4,34.5,43,33.6z"/>
<g transform="matrix(.97917,0,-.00416,.99366,.62588,.74389)">
	
		<linearGradient id="SVGID_4_" gradientUnits="userSpaceOnUse" x1="19.2171" y1="30.9416" x2="62.3457" y2="-13.9974" gradientTransform="matrix(0.9792 0 -4.160000e-03 -0.9937 -14.9345 36.9332)">
		<stop  offset="0" style="stop-color:#D4D4D4"/>
		<stop  offset="0.3982" style="stop-color:#E2E2E2"/>
		<stop  offset="1" style="stop-color:#FFFFFF"/>
	</linearGradient>
	<path class="st4" d="M9.2,32.6c-0.3,0.5,0,0.9,0.5,0.9h28.2c0.5,0,0.8-0.4,0.5-0.9L24.1,6c-0.3-0.5-0.7-0.5-0.9,0
		C23.2,6,9.2,32.6,9.2,32.6z"/>
</g>
<linearGradient id="SVGID_5_" gradientUnits="userSpaceOnUse" x1="-225.2258" y1="148.4249" x2="-205.1747" y2="131.5899" gradientTransform="matrix(1.5667 0 6.560000e-03 -1.5667 361.7721 246.9983)">
	<stop  offset="0" style="stop-color:#FFFFFF"/>
	<stop  offset="1" style="stop-color:#FFFFFF;stop-opacity:0.3402"/>
</linearGradient>
<path class="st5" d="M41.5,32.9L25.6,3.2C25,2,24.7,1.5,23.7,1.5c-0.9,0-1.3,0.6-2,1.8L6.1,33c-0.9,1.7-1,2.1-0.6,2.8
	c0.4,0.7,1,0.7,3.1,0.7h30.7c1.9,0,2.4-0.1,2.7-0.9C42.5,34.9,42.3,34.4,41.5,32.9L41.5,32.9z"/>
<g transform="matrix(.86964 0 0 .86958 3.2156 3.9421)">
	<path d="M23.6,30.7c-1.3,0-2.3-1-2.3-2.3c0-1.4,0.9-2.3,2.3-2.3s2.2,0.9,2.3,2.3C25.9,29.7,25,30.7,23.6,30.7z M22.2,24.8
		l-0.6-11.5h4L25,24.8h-2.9H22.2z"/>
</g>
</svg>
